<svg width="1595" height="1508" viewBox="0 0 1595 1508" fill="none" xmlns="http://www.w3.org/2000/svg">
<g style="mix-blend-mode:overlay">
<g style="mix-blend-mode:overlay">
<path d="M1559.67 416.338C1559.67 417.597 1559.29 418.827 1558.59 419.874C1557.89 420.92 1556.9 421.736 1555.74 422.218C1554.57 422.7 1553.29 422.826 1552.06 422.58C1550.82 422.334 1549.69 421.728 1548.8 420.838C1547.91 419.948 1547.3 418.814 1547.06 417.579C1546.81 416.345 1546.94 415.065 1547.42 413.902C1547.9 412.739 1548.72 411.745 1549.77 411.045C1550.81 410.346 1552.04 409.973 1553.3 409.973C1554.14 409.973 1554.96 410.137 1555.74 410.457C1556.51 410.777 1557.21 411.246 1557.8 411.837C1558.39 412.428 1558.86 413.13 1559.18 413.902C1559.5 414.674 1559.67 415.502 1559.67 416.338Z" fill="white"/>
</g>
<g style="mix-blend-mode:overlay">
<path d="M1585.63 422.703C1589.15 422.703 1592 419.853 1592 416.338C1592 412.822 1589.15 409.973 1585.63 409.973C1582.12 409.973 1579.27 412.822 1579.27 416.338C1579.27 419.853 1582.12 422.703 1585.63 422.703Z" fill="white"/>
</g>
<g style="mix-blend-mode:overlay">
<path d="M1559.67 448.671C1559.67 449.93 1559.29 451.161 1558.59 452.207C1557.89 453.254 1556.9 454.07 1555.74 454.552C1554.57 455.033 1553.29 455.159 1552.06 454.914C1550.83 454.668 1549.69 454.062 1548.8 453.172C1547.91 452.282 1547.3 451.148 1547.06 449.913C1546.81 448.678 1546.94 447.399 1547.42 446.236C1547.9 445.073 1548.72 444.079 1549.77 443.379C1550.81 442.68 1552.04 442.307 1553.3 442.307C1554.99 442.307 1556.61 442.977 1557.8 444.171C1559 445.364 1559.67 446.983 1559.67 448.671Z" fill="white"/>
</g>
<g style="mix-blend-mode:overlay">
<path d="M1592 448.671C1592 449.93 1591.63 451.161 1590.93 452.207C1590.23 453.254 1589.23 454.07 1588.07 454.552C1586.91 455.034 1585.63 455.16 1584.39 454.914C1583.16 454.669 1582.02 454.062 1581.13 453.172C1580.24 452.282 1579.64 451.148 1579.39 449.913C1579.15 448.679 1579.27 447.399 1579.75 446.236C1580.24 445.073 1581.05 444.079 1582.1 443.379C1583.15 442.68 1584.38 442.307 1585.63 442.307C1587.32 442.307 1588.94 442.977 1590.14 444.171C1591.33 445.364 1592 446.983 1592 448.671Z" fill="white"/>
</g>
<g style="mix-blend-mode:overlay">
<path d="M1559.67 481.005C1559.67 482.264 1559.29 483.494 1558.59 484.541C1557.89 485.588 1556.9 486.404 1555.74 486.885C1554.57 487.367 1553.29 487.493 1552.06 487.247C1550.82 487.002 1549.69 486.396 1548.8 485.505C1547.91 484.615 1547.3 483.481 1547.06 482.247C1546.81 481.012 1546.94 479.732 1547.42 478.569C1547.9 477.406 1548.72 476.412 1549.77 475.713C1550.81 475.014 1552.04 474.64 1553.3 474.64C1554.14 474.64 1554.96 474.805 1555.74 475.125C1556.51 475.445 1557.21 475.913 1557.8 476.504C1558.39 477.096 1558.86 477.797 1559.18 478.569C1559.5 479.342 1559.67 480.169 1559.67 481.005Z" fill="white"/>
</g>
<g style="mix-blend-mode:overlay">
<path d="M1592 481.005C1592 482.264 1591.63 483.495 1590.93 484.541C1590.23 485.588 1589.23 486.404 1588.07 486.885C1586.91 487.367 1585.63 487.493 1584.39 487.248C1583.16 487.002 1582.02 486.396 1581.13 485.506C1580.24 484.616 1579.64 483.481 1579.39 482.247C1579.15 481.012 1579.27 479.732 1579.75 478.569C1580.24 477.406 1581.05 476.412 1582.1 475.713C1583.15 475.014 1584.38 474.64 1585.63 474.64C1586.47 474.64 1587.3 474.805 1588.07 475.125C1588.84 475.445 1589.54 475.913 1590.14 476.504C1590.73 477.095 1591.2 477.797 1591.52 478.569C1591.84 479.342 1592 480.169 1592 481.005Z" fill="white"/>
</g>
</g>
<g style="mix-blend-mode:overlay">
<g style="mix-blend-mode:overlay">
<path d="M322.265 825.953C325.781 825.953 328.63 823.103 328.63 819.588C328.63 816.073 325.781 813.223 322.265 813.223C318.75 813.223 315.9 816.073 315.9 819.588C315.9 823.103 318.75 825.953 322.265 825.953Z" fill="white"/>
</g>
<g style="mix-blend-mode:overlay">
<path d="M354.599 825.953C358.114 825.953 360.964 823.103 360.964 819.588C360.964 816.072 358.114 813.223 354.599 813.223C351.084 813.223 348.234 816.072 348.234 819.588C348.234 823.103 351.084 825.953 354.599 825.953Z" fill="white"/>
</g>
<g style="mix-blend-mode:overlay">
<path d="M393.297 819.588C393.297 820.847 392.924 822.077 392.225 823.124C391.525 824.17 390.531 824.986 389.368 825.468C388.205 825.95 386.926 826.076 385.691 825.83C384.456 825.585 383.322 824.978 382.432 824.088C381.542 823.198 380.936 822.064 380.69 820.829C380.445 819.595 380.571 818.315 381.052 817.152C381.534 815.989 382.35 814.995 383.396 814.295C384.443 813.596 385.674 813.223 386.933 813.223C387.768 813.223 388.596 813.387 389.368 813.707C390.141 814.027 390.842 814.496 391.433 815.087C392.024 815.678 392.493 816.38 392.813 817.152C393.133 817.924 393.297 818.752 393.297 819.588Z" fill="white"/>
</g>
<g style="mix-blend-mode:overlay">
<path d="M328.63 851.921C328.63 853.18 328.257 854.411 327.558 855.458C326.858 856.504 325.864 857.32 324.701 857.802C323.538 858.284 322.258 858.41 321.024 858.164C319.789 857.919 318.655 857.312 317.765 856.422C316.875 855.532 316.268 854.398 316.023 853.163C315.777 851.929 315.903 850.649 316.385 849.486C316.867 848.323 317.682 847.329 318.729 846.629C319.776 845.93 321.006 845.557 322.265 845.557C323.101 845.557 323.929 845.721 324.701 846.041C325.473 846.361 326.175 846.83 326.766 847.421C327.357 848.012 327.826 848.713 328.146 849.486C328.466 850.258 328.63 851.086 328.63 851.921Z" fill="white"/>
</g>
<g style="mix-blend-mode:overlay">
<path d="M360.964 851.921C360.964 853.18 360.59 854.411 359.891 855.458C359.192 856.504 358.198 857.32 357.035 857.802C355.872 858.284 354.592 858.41 353.357 858.164C352.123 857.919 350.988 857.312 350.098 856.422C349.208 855.532 348.602 854.398 348.356 853.163C348.111 851.929 348.237 850.649 348.718 849.486C349.2 848.323 350.016 847.329 351.063 846.629C352.109 845.93 353.34 845.557 354.599 845.557C355.435 845.557 356.262 845.721 357.035 846.041C357.807 846.361 358.508 846.83 359.099 847.421C359.69 848.012 360.159 848.713 360.479 849.486C360.799 850.258 360.964 851.086 360.964 851.921Z" fill="white"/>
</g>
<g style="mix-blend-mode:overlay">
<path d="M393.297 851.921C393.297 853.18 392.924 854.411 392.225 855.457C391.525 856.504 390.531 857.32 389.368 857.802C388.205 858.283 386.926 858.41 385.691 858.164C384.456 857.918 383.322 857.312 382.432 856.422C381.542 855.532 380.936 854.398 380.69 853.163C380.445 851.929 380.571 850.649 381.052 849.486C381.534 848.323 382.35 847.329 383.396 846.629C384.443 845.93 385.674 845.557 386.933 845.557C387.768 845.557 388.596 845.721 389.368 846.041C390.14 846.361 390.842 846.83 391.433 847.421C392.024 848.012 392.493 848.714 392.813 849.486C393.133 850.258 393.297 851.086 393.297 851.921Z" fill="white"/>
</g>
<g style="mix-blend-mode:overlay">
<path d="M328.63 884.255C328.63 885.514 328.257 886.745 327.558 887.791C326.858 888.838 325.864 889.654 324.701 890.135C323.538 890.617 322.258 890.743 321.024 890.498C319.789 890.252 318.655 889.646 317.765 888.756C316.874 887.866 316.268 886.731 316.023 885.497C315.777 884.262 315.903 882.982 316.385 881.819C316.867 880.656 317.682 879.662 318.729 878.963C319.776 878.263 321.006 877.89 322.265 877.89C323.101 877.89 323.929 878.055 324.701 878.375C325.473 878.694 326.175 879.163 326.766 879.754C327.357 880.345 327.826 881.047 328.146 881.819C328.466 882.592 328.63 883.419 328.63 884.255Z" fill="white"/>
</g>
<g style="mix-blend-mode:overlay">
<path d="M360.963 884.255C360.963 885.514 360.59 886.745 359.891 887.791C359.191 888.838 358.197 889.654 357.034 890.135C355.871 890.617 354.591 890.743 353.357 890.498C352.122 890.252 350.988 889.646 350.098 888.756C349.208 887.866 348.601 886.731 348.356 885.497C348.11 884.262 348.236 882.982 348.718 881.819C349.2 880.656 350.015 879.662 351.062 878.963C352.109 878.263 353.339 877.89 354.598 877.89C355.434 877.89 356.262 878.055 357.034 878.375C357.806 878.694 358.508 879.163 359.099 879.754C359.69 880.345 360.159 881.047 360.479 881.819C360.799 882.592 360.963 883.419 360.963 884.255Z" fill="white"/>
</g>
<g style="mix-blend-mode:overlay">
<path d="M393.297 884.255C393.297 885.514 392.924 886.744 392.225 887.791C391.525 888.838 390.531 889.654 389.368 890.135C388.205 890.617 386.926 890.743 385.691 890.497C384.456 890.252 383.322 889.646 382.432 888.755C381.542 887.865 380.936 886.731 380.69 885.497C380.445 884.262 380.571 882.982 381.052 881.819C381.534 880.656 382.35 879.662 383.396 878.963C384.443 878.263 385.674 877.89 386.933 877.89C387.768 877.89 388.596 878.055 389.368 878.375C390.141 878.694 390.842 879.163 391.433 879.754C392.024 880.345 392.493 881.047 392.813 881.819C393.133 882.591 393.297 883.419 393.297 884.255Z" fill="white"/>
</g>
</g>
<g style="mix-blend-mode:overlay">
<g style="mix-blend-mode:overlay">
<path d="M6.36491 12.7298C9.88016 12.7298 12.7298 9.88017 12.7298 6.36492C12.7298 2.84967 9.88016 0 6.36491 0C2.84967 0 0 2.84967 0 6.36492C0 9.88017 2.84967 12.7298 6.36491 12.7298Z" fill="white"/>
</g>
<g style="mix-blend-mode:overlay">
<path d="M38.6984 12.7298C42.2137 12.7298 45.0633 9.88017 45.0633 6.36492C45.0633 2.84967 42.2137 0 38.6984 0C35.1832 0 32.3335 2.84967 32.3335 6.36492C32.3335 9.88017 35.1832 12.7298 38.6984 12.7298Z" fill="white"/>
</g>
<g style="mix-blend-mode:overlay">
<path d="M77.3976 6.3649C77.3975 7.62373 77.0242 8.85428 76.3249 9.90095C75.6255 10.9476 74.6314 11.7634 73.4684 12.2451C72.3054 12.7268 71.0257 12.8529 69.791 12.6073C68.5564 12.3617 67.4223 11.7555 66.5322 10.8654C65.6421 9.97525 65.0359 8.84116 64.7903 7.60652C64.5447 6.37189 64.6707 5.09215 65.1524 3.92914C65.6342 2.76613 66.4499 1.77209 67.4966 1.07271C68.5433 0.373327 69.7738 2.18681e-05 71.0327 0C71.8685 -2.90395e-06 72.6962 0.164629 73.4684 0.484494C74.2406 0.804359 74.9423 1.27319 75.5333 1.86423C76.1244 2.45526 76.5932 3.15693 76.9131 3.92916C77.2329 4.70138 77.3976 5.52905 77.3976 6.3649Z" fill="white"/>
</g>
<g style="mix-blend-mode:overlay">
<path d="M6.36491 45.0635C9.88016 45.0635 12.7298 42.2138 12.7298 38.6986C12.7298 35.1833 9.88016 32.3337 6.36491 32.3337C2.84967 32.3337 0 35.1833 0 38.6986C0 42.2138 2.84967 45.0635 6.36491 45.0635Z" fill="white"/>
</g>
<g style="mix-blend-mode:overlay">
<path d="M38.6984 45.0635C42.2137 45.0635 45.0633 42.2138 45.0633 38.6986C45.0633 35.1833 42.2137 32.3337 38.6984 32.3337C35.1832 32.3337 32.3335 35.1833 32.3335 38.6986C32.3335 42.2138 35.1832 45.0635 38.6984 45.0635Z" fill="white"/>
</g>
<g style="mix-blend-mode:overlay">
<path d="M77.3976 38.6986C77.3975 39.9574 77.0242 41.188 76.3249 42.2346C75.6255 43.2813 74.6314 44.0971 73.4684 44.5788C72.3054 45.0605 71.0257 45.1865 69.791 44.941C68.5564 44.6954 67.4223 44.0892 66.5322 43.1991C65.6421 42.3089 65.0359 41.1748 64.7903 39.9402C64.5447 38.7056 64.6707 37.4258 65.1524 36.2628C65.6342 35.0998 66.4499 34.1058 67.4966 33.4064C68.5433 32.707 69.7738 32.3337 71.0327 32.3337C71.8685 32.3337 72.6962 32.4983 73.4684 32.8182C74.2406 33.138 74.9423 33.6069 75.5333 34.1979C76.1244 34.7889 76.5932 35.4906 76.9131 36.2628C77.2329 37.0351 77.3976 37.8627 77.3976 38.6986Z" fill="white"/>
</g>
<g style="mix-blend-mode:overlay">
<path d="M6.36491 77.397C9.88016 77.397 12.7298 74.5474 12.7298 71.0321C12.7298 67.5169 9.88016 64.6672 6.36491 64.6672C2.84967 64.6672 0 67.5169 0 71.0321C0 74.5474 2.84967 77.397 6.36491 77.397Z" fill="white"/>
</g>
<g style="mix-blend-mode:overlay">
<path d="M38.6984 77.397C42.2137 77.397 45.0633 74.5474 45.0633 71.0321C45.0633 67.5169 42.2137 64.6672 38.6984 64.6672C35.1832 64.6672 32.3335 67.5169 32.3335 71.0321C32.3335 74.5474 35.1832 77.397 38.6984 77.397Z" fill="white"/>
</g>
<g style="mix-blend-mode:overlay">
<path d="M77.3976 71.0321C77.3975 72.291 77.0242 73.5215 76.3249 74.5682C75.6255 75.6149 74.6314 76.4306 73.4684 76.9123C72.3054 77.3941 71.0257 77.5201 69.791 77.2745C68.5564 77.0289 67.4223 76.4227 66.5322 75.5326C65.6421 74.6425 65.0359 73.5084 64.7903 72.2738C64.5447 71.0391 64.6707 69.7594 65.1524 68.5964C65.6342 67.4334 66.4499 66.4393 67.4966 65.7399C68.5433 65.0406 69.7738 64.6673 71.0327 64.6672C71.8685 64.6672 72.6962 64.8319 73.4684 65.1517C74.2406 65.4716 74.9423 65.9404 75.5333 66.5315C76.1244 67.1225 76.5932 67.8242 76.9131 68.5964C77.2329 69.3686 77.3976 70.1963 77.3976 71.0321Z" fill="white"/>
</g>
</g>
<g style="mix-blend-mode:overlay">
<g style="mix-blend-mode:overlay">
<path d="M1482.27 962.648C1482.27 963.906 1481.9 965.137 1481.2 966.184C1480.5 967.23 1479.5 968.046 1478.34 968.528C1477.18 969.009 1475.9 969.135 1474.66 968.89C1473.43 968.644 1472.3 968.038 1471.41 967.148C1470.52 966.258 1469.91 965.124 1469.66 963.889C1469.42 962.654 1469.54 961.375 1470.03 960.212C1470.51 959.049 1471.32 958.055 1472.37 957.355C1473.42 956.656 1474.65 956.283 1475.91 956.283C1477.59 956.283 1479.21 956.953 1480.41 958.147C1481.6 959.341 1482.27 960.959 1482.27 962.648Z" fill="white"/>
</g>
<g style="mix-blend-mode:overlay">
<path d="M1508.24 969.012C1511.75 969.012 1514.6 966.163 1514.6 962.647C1514.6 959.132 1511.75 956.282 1508.24 956.282C1504.72 956.282 1501.87 959.132 1501.87 962.647C1501.87 966.163 1504.72 969.012 1508.24 969.012Z" fill="white"/>
</g>
<g style="mix-blend-mode:overlay">
<path d="M1540.57 969.012C1544.09 969.012 1546.94 966.163 1546.94 962.647C1546.94 959.132 1544.09 956.282 1540.57 956.282C1537.06 956.282 1534.21 959.132 1534.21 962.647C1534.21 966.163 1537.06 969.012 1540.57 969.012Z" fill="white"/>
</g>
<g style="mix-blend-mode:overlay">
<path d="M1482.27 994.981C1482.27 996.24 1481.9 997.47 1481.2 998.517C1480.5 999.564 1479.5 1000.38 1478.34 1000.86C1477.18 1001.34 1475.9 1001.47 1474.66 1001.22C1473.43 1000.98 1472.29 1000.37 1471.4 999.481C1470.51 998.591 1469.91 997.457 1469.66 996.222C1469.42 994.988 1469.54 993.708 1470.02 992.545C1470.51 991.382 1471.32 990.388 1472.37 989.688C1473.42 988.989 1474.65 988.616 1475.9 988.616C1477.59 988.616 1479.21 989.287 1480.41 990.48C1481.6 991.674 1482.27 993.293 1482.27 994.981Z" fill="white"/>
</g>
<g style="mix-blend-mode:overlay">
<path d="M1508.24 1001.35C1511.75 1001.35 1514.6 998.496 1514.6 994.981C1514.6 991.466 1511.75 988.616 1508.24 988.616C1504.72 988.616 1501.87 991.466 1501.87 994.981C1501.87 998.496 1504.72 1001.35 1508.24 1001.35Z" fill="white"/>
</g>
<g style="mix-blend-mode:overlay">
<path d="M1540.57 1001.35C1544.09 1001.35 1546.94 998.496 1546.94 994.981C1546.94 991.466 1544.09 988.616 1540.57 988.616C1537.06 988.616 1534.21 991.466 1534.21 994.981C1534.21 998.496 1537.06 1001.35 1540.57 1001.35Z" fill="white"/>
</g>
<g style="mix-blend-mode:overlay">
<path d="M1482.27 1027.31C1482.27 1028.57 1481.9 1029.8 1481.2 1030.85C1480.5 1031.9 1479.5 1032.71 1478.34 1033.19C1477.18 1033.68 1475.9 1033.8 1474.66 1033.56C1473.43 1033.31 1472.29 1032.71 1471.4 1031.81C1470.51 1030.92 1469.91 1029.79 1469.66 1028.56C1469.42 1027.32 1469.54 1026.04 1470.02 1024.88C1470.51 1023.72 1471.32 1022.72 1472.37 1022.02C1473.42 1021.32 1474.65 1020.95 1475.9 1020.95C1477.59 1020.95 1479.21 1021.62 1480.41 1022.81C1481.6 1024.01 1482.27 1025.63 1482.27 1027.31Z" fill="white"/>
</g>
<g style="mix-blend-mode:overlay">
<path d="M1508.24 1033.68C1511.75 1033.68 1514.6 1030.83 1514.6 1027.31C1514.6 1023.8 1511.75 1020.95 1508.24 1020.95C1504.72 1020.95 1501.87 1023.8 1501.87 1027.31C1501.87 1030.83 1504.72 1033.68 1508.24 1033.68Z" fill="white"/>
</g>
<g style="mix-blend-mode:overlay">
<path d="M1540.57 1033.68C1544.09 1033.68 1546.94 1030.83 1546.94 1027.31C1546.94 1023.8 1544.09 1020.95 1540.57 1020.95C1537.06 1020.95 1534.21 1023.8 1534.21 1027.31C1534.21 1030.83 1537.06 1033.68 1540.57 1033.68Z" fill="white"/>
</g>
</g>
<g style="mix-blend-mode:overlay">
<g style="mix-blend-mode:overlay">
<path d="M1570.94 1254.88C1566.21 1254.88 1561.58 1253.48 1557.64 1250.85C1553.7 1248.22 1550.63 1244.48 1548.82 1240.1C1547.01 1235.73 1546.54 1230.91 1547.46 1226.27C1548.38 1221.63 1550.66 1217.36 1554.01 1214.01C1557.36 1210.66 1561.63 1208.38 1566.27 1207.46C1570.92 1206.54 1575.73 1207.01 1580.1 1208.82C1584.48 1210.63 1588.22 1213.7 1590.85 1217.64C1593.48 1221.58 1594.88 1226.21 1594.88 1230.94C1594.88 1237.29 1592.35 1243.37 1587.86 1247.86C1583.37 1252.35 1577.29 1254.88 1570.94 1254.88ZM1570.94 1213.63C1567.52 1213.63 1564.17 1214.65 1561.33 1216.55C1558.48 1218.45 1556.26 1221.16 1554.95 1224.32C1553.64 1227.48 1553.3 1230.96 1553.97 1234.32C1554.63 1237.68 1556.28 1240.76 1558.7 1243.18C1561.12 1245.6 1564.21 1247.25 1567.57 1247.92C1570.92 1248.58 1574.4 1248.24 1577.57 1246.93C1580.73 1245.62 1583.43 1243.4 1585.33 1240.56C1587.23 1237.71 1588.25 1234.36 1588.25 1230.94C1588.24 1226.35 1586.42 1221.95 1583.17 1218.71C1579.93 1215.46 1575.53 1213.64 1570.94 1213.63Z" fill="white"/>
</g>
</g>
<g style="mix-blend-mode:overlay">
<g style="mix-blend-mode:overlay">
<path d="M1417.13 922.457C1412.39 922.457 1407.76 921.053 1403.83 918.422C1399.89 915.791 1396.82 912.052 1395.01 907.677C1393.2 903.302 1392.72 898.488 1393.65 893.844C1394.57 889.199 1396.85 884.933 1400.2 881.585C1403.55 878.236 1407.81 875.956 1412.46 875.032C1417.1 874.108 1421.92 874.582 1426.29 876.395C1430.67 878.207 1434.4 881.275 1437.04 885.213C1439.67 889.15 1441.07 893.779 1441.07 898.515C1441.06 904.862 1438.54 910.948 1434.05 915.437C1429.56 919.925 1423.48 922.45 1417.13 922.457ZM1417.13 881.206C1413.7 881.206 1410.36 882.221 1407.51 884.123C1404.67 886.025 1402.45 888.728 1401.14 891.891C1399.83 895.054 1399.48 898.534 1400.15 901.891C1400.82 905.249 1402.47 908.333 1404.89 910.754C1407.31 913.174 1410.39 914.823 1413.75 915.491C1417.11 916.158 1420.59 915.816 1423.75 914.506C1426.91 913.196 1429.62 910.977 1431.52 908.131C1433.42 905.284 1434.44 901.938 1434.44 898.515C1434.43 893.926 1432.61 889.526 1429.36 886.281C1426.12 883.036 1421.72 881.211 1417.13 881.206Z" fill="white"/>
</g>
</g>
<g style="mix-blend-mode:overlay">
<g style="mix-blend-mode:overlay">
<path d="M1114.8 992.955C1110.07 992.955 1105.44 991.551 1101.5 988.92C1097.57 986.29 1094.5 982.551 1092.69 978.176C1090.87 973.801 1090.4 968.988 1091.32 964.343C1092.25 959.699 1094.53 955.433 1097.87 952.085C1101.22 948.736 1105.49 946.456 1110.13 945.532C1114.78 944.608 1119.59 945.082 1123.96 946.894C1128.34 948.705 1132.08 951.774 1134.71 955.711C1137.34 959.648 1138.75 964.277 1138.75 969.012C1138.74 975.359 1136.21 981.445 1131.73 985.933C1127.24 990.422 1121.15 992.947 1114.8 992.955ZM1114.8 951.706C1111.38 951.705 1108.04 952.72 1105.19 954.622C1102.34 956.524 1100.12 959.227 1098.81 962.389C1097.5 965.552 1097.16 969.032 1097.83 972.389C1098.5 975.747 1100.15 978.831 1102.57 981.251C1104.99 983.672 1108.07 985.32 1111.43 985.988C1114.79 986.656 1118.26 986.313 1121.43 985.003C1124.59 983.693 1127.29 981.474 1129.19 978.628C1131.1 975.782 1132.11 972.435 1132.11 969.012C1132.11 964.424 1130.28 960.025 1127.04 956.781C1123.79 953.536 1119.39 951.711 1114.8 951.706Z" fill="white"/>
</g>
</g>
<g style="mix-blend-mode:overlay">
<g style="mix-blend-mode:overlay">
<path d="M446.255 454.539C441.52 454.539 436.891 453.134 432.954 450.503C429.017 447.873 425.949 444.133 424.137 439.759C422.325 435.384 421.851 430.57 422.775 425.926C423.699 421.282 425.979 417.016 429.328 413.668C432.676 410.319 436.942 408.039 441.586 407.116C446.23 406.192 451.044 406.666 455.419 408.478C459.793 410.29 463.532 413.359 466.163 417.296C468.794 421.233 470.198 425.862 470.198 430.597C470.19 436.945 467.665 443.03 463.177 447.519C458.688 452.007 452.603 454.532 446.255 454.539ZM446.255 413.29C442.832 413.29 439.486 414.305 436.64 416.207C433.794 418.109 431.576 420.812 430.266 423.975C428.956 427.137 428.614 430.617 429.282 433.974C429.95 437.332 431.598 440.416 434.019 442.836C436.439 445.256 439.523 446.905 442.88 447.572C446.238 448.24 449.718 447.897 452.88 446.587C456.042 445.277 458.745 443.059 460.647 440.213C462.549 437.366 463.564 434.02 463.564 430.597C463.558 426.009 461.733 421.609 458.488 418.365C455.243 415.12 450.844 413.295 446.255 413.29Z" fill="white"/>
</g>
</g>
<g style="mix-blend-mode:overlay">
<g style="mix-blend-mode:overlay">
<path d="M220.631 247.816C215.896 247.816 211.267 246.412 207.33 243.781C203.393 241.15 200.325 237.411 198.513 233.036C196.701 228.661 196.227 223.847 197.151 219.203C198.075 214.559 200.355 210.293 203.704 206.945C207.052 203.597 211.318 201.317 215.962 200.393C220.606 199.469 225.42 199.943 229.795 201.756C234.169 203.568 237.908 206.636 240.539 210.573C243.17 214.511 244.574 219.139 244.574 223.875C244.567 230.222 242.042 236.308 237.553 240.796C233.065 245.285 226.979 247.809 220.631 247.816ZM220.631 206.567C217.208 206.567 213.862 207.583 211.016 209.484C208.17 211.386 205.952 214.089 204.642 217.252C203.332 220.415 202.99 223.894 203.658 227.252C204.326 230.609 205.974 233.693 208.395 236.113C210.815 238.534 213.899 240.182 217.256 240.85C220.614 241.517 224.093 241.174 227.256 239.864C230.418 238.554 233.121 236.336 235.023 233.49C236.925 230.644 237.94 227.298 237.94 223.875C237.935 219.286 236.11 214.886 232.865 211.642C229.62 208.397 225.22 206.572 220.631 206.567Z" fill="white"/>
</g>
</g>
<g style="mix-blend-mode:overlay">
<g style="mix-blend-mode:overlay">
<path d="M397.245 139.752C388.154 139.752 379.268 137.056 371.709 132.005C364.151 126.955 358.259 119.776 354.781 111.378C351.302 102.979 350.391 93.7374 352.165 84.8214C353.938 75.9054 358.316 67.7156 364.744 61.2875C371.172 54.8595 379.362 50.4819 388.278 48.7084C397.194 46.9349 406.436 47.8451 414.834 51.324C423.233 54.8028 430.411 60.694 435.462 68.2526C440.512 75.8112 443.208 84.6977 443.208 93.7884C443.194 105.974 438.347 117.657 429.731 126.274C421.114 134.891 409.431 139.738 397.245 139.752ZM397.245 54.4593C389.466 54.4593 381.862 56.7659 375.395 61.0874C368.927 65.4089 363.886 71.5513 360.91 78.7378C357.933 85.9242 357.154 93.832 358.672 101.461C360.189 109.09 363.935 116.098 369.435 121.598C374.935 127.099 381.943 130.844 389.572 132.362C397.201 133.879 405.109 133.1 412.296 130.124C419.482 127.147 425.624 122.106 429.946 115.638C434.267 109.171 436.574 101.567 436.574 93.7884C436.562 83.3613 432.415 73.3647 425.042 65.9916C417.669 58.6185 407.672 54.4711 397.245 54.4593Z" fill="white"/>
</g>
</g>
<g style="mix-blend-mode:overlay">
<g style="mix-blend-mode:overlay">
<path d="M84.0914 379.479C81.5183 379.478 79.0031 378.715 76.8638 377.285C74.7244 375.856 73.0571 373.824 72.0725 371.446C71.088 369.069 70.8305 366.453 71.3326 363.93C71.8348 361.406 73.0739 359.088 74.8935 357.269C76.713 355.449 79.0311 354.21 81.5548 353.708C84.0785 353.206 86.6943 353.464 89.0715 354.449C91.4487 355.434 93.4805 357.101 94.91 359.241C96.3395 361.38 97.1025 363.895 97.1025 366.469C97.0989 369.918 95.7269 373.225 93.2876 375.664C90.8483 378.103 87.541 379.475 84.0914 379.479ZM84.0914 360.093C82.8304 360.093 81.5978 360.467 80.5494 361.168C79.5011 361.868 78.684 362.864 78.2016 364.029C77.7192 365.194 77.5931 366.476 77.8392 367.713C78.0853 368.95 78.6927 370.086 79.5844 370.977C80.4762 371.869 81.6122 372.476 82.849 372.722C84.0858 372.968 85.3678 372.842 86.5328 372.359C87.6977 371.876 88.6935 371.059 89.394 370.011C90.0946 368.962 90.4685 367.73 90.4685 366.469C90.4668 364.778 89.7944 363.157 88.5988 361.962C87.4032 360.766 85.7821 360.094 84.0914 360.093Z" fill="white"/>
</g>
</g>
<g style="mix-blend-mode:overlay">
<g style="mix-blend-mode:overlay">
<path d="M1329.04 121.099C1321.9 121.099 1314.91 118.98 1308.97 115.01C1303.03 111.039 1298.39 105.396 1295.66 98.7933C1292.92 92.1907 1292.21 84.9253 1293.6 77.9159C1295 70.9065 1298.44 64.4679 1303.49 59.4143C1308.55 54.3607 1314.98 50.9192 1321.99 49.5248C1329 48.1305 1336.27 48.846 1342.87 51.5809C1349.47 54.3158 1355.12 58.9472 1359.09 64.8894C1363.06 70.8317 1365.18 77.8179 1365.18 84.9646C1365.17 94.5445 1361.36 103.729 1354.58 110.503C1347.81 117.277 1338.62 121.088 1329.04 121.099ZM1329.04 55.4645C1323.21 55.4643 1317.51 57.1943 1312.65 60.4356C1307.8 63.677 1304.02 68.2842 1301.79 73.6746C1299.56 79.0651 1298.97 84.9966 1300.11 90.7191C1301.25 96.4417 1304.06 101.698 1308.18 105.824C1312.31 109.95 1317.56 112.759 1323.29 113.898C1329.01 115.036 1334.94 114.452 1340.33 112.219C1345.72 109.987 1350.33 106.205 1353.57 101.354C1356.81 96.5028 1358.54 90.7992 1358.54 84.9646C1358.53 77.1436 1355.42 69.6455 1349.89 64.1151C1344.36 58.5847 1336.87 55.4737 1329.04 55.4645Z" fill="white"/>
</g>
</g>
<g style="mix-blend-mode:overlay">
<g style="mix-blend-mode:overlay">
<path d="M1505.24 585.074C1502.67 585.074 1500.15 584.311 1498.01 582.882C1495.87 581.453 1494.21 579.421 1493.22 577.044C1492.24 574.666 1491.98 572.051 1492.48 569.527C1492.98 567.003 1494.22 564.685 1496.04 562.865C1497.86 561.046 1500.18 559.806 1502.7 559.304C1505.22 558.802 1507.84 559.059 1510.22 560.044C1512.59 561.028 1514.63 562.696 1516.06 564.835C1517.49 566.974 1518.25 569.49 1518.25 572.063C1518.25 575.512 1516.87 578.819 1514.44 581.258C1512 583.698 1508.69 585.07 1505.24 585.074ZM1505.24 565.688C1503.98 565.688 1502.75 566.062 1501.7 566.762C1500.65 567.463 1499.83 568.458 1499.35 569.623C1498.87 570.789 1498.74 572.071 1498.99 573.308C1499.23 574.544 1499.84 575.681 1500.73 576.572C1501.62 577.464 1502.76 578.072 1504 578.318C1505.23 578.563 1506.51 578.437 1507.68 577.954C1508.85 577.472 1509.84 576.654 1510.54 575.606C1511.24 574.557 1511.62 573.324 1511.62 572.063C1511.61 570.373 1510.94 568.752 1509.75 567.557C1508.55 566.362 1506.93 565.69 1505.24 565.688Z" fill="white"/>
</g>
</g>
<g style="mix-blend-mode:overlay">
<g style="mix-blend-mode:overlay">
<path d="M1534.21 84.0414C1531.63 84.0415 1529.12 83.2786 1526.98 81.8492C1524.84 80.4197 1523.17 78.3879 1522.19 76.0107C1521.2 73.6335 1520.94 71.0177 1521.45 68.4941C1521.95 65.9704 1523.19 63.6523 1525.01 61.8328C1526.83 60.0134 1529.14 58.7744 1531.67 58.2724C1534.19 57.7705 1536.81 58.0281 1539.18 59.0129C1541.56 59.9976 1543.59 61.6651 1545.02 63.8046C1546.45 65.9441 1547.22 68.4594 1547.22 71.0325C1547.21 74.4815 1545.84 77.7882 1543.4 80.227C1540.96 82.6658 1537.66 84.0376 1534.21 84.0414ZM1534.21 64.6565C1532.95 64.6564 1531.71 65.0302 1530.66 65.7307C1529.62 66.4311 1528.8 67.4268 1528.32 68.5917C1527.83 69.7566 1527.71 71.0385 1527.95 72.2752C1528.2 73.512 1528.81 74.648 1529.7 75.5397C1530.59 76.4314 1531.73 77.0387 1532.96 77.2848C1534.2 77.5309 1535.48 77.4048 1536.65 76.9223C1537.81 76.4399 1538.81 75.6228 1539.51 74.5744C1540.21 73.526 1540.58 72.2934 1540.58 71.0325C1540.58 69.3422 1539.91 67.7216 1538.71 66.5262C1537.52 65.3309 1535.9 64.6585 1534.21 64.6565Z" fill="white"/>
</g>
</g>
<g style="mix-blend-mode:overlay">
<g style="mix-blend-mode:overlay">
<path d="M623.523 51.7082C620.951 51.7079 618.436 50.9447 616.296 49.515C614.157 48.0853 612.49 46.0534 611.506 43.6763C610.521 41.2991 610.264 38.6834 610.766 36.1599C611.268 33.6365 612.507 31.3185 614.326 29.4993C616.146 27.68 618.464 26.4411 620.987 25.9392C623.511 25.4373 626.127 25.6949 628.504 26.6796C630.881 27.6642 632.912 29.3316 634.342 31.4709C635.771 33.6101 636.534 36.1253 636.535 38.6982C636.531 42.1478 635.159 45.455 632.72 47.8941C630.28 50.3332 626.973 51.7049 623.523 51.7082ZM623.523 32.3233C622.263 32.3237 621.03 32.6978 619.982 33.3986C618.934 34.0994 618.117 35.0952 617.635 36.2602C617.152 37.4253 617.026 38.7071 617.272 39.9438C617.519 41.1804 618.126 42.3162 619.018 43.2077C619.91 44.0991 621.046 44.7061 622.282 44.9519C623.519 45.1977 624.801 45.0713 625.966 44.5886C627.13 44.1059 628.126 43.2887 628.826 42.2402C629.527 41.1917 629.901 39.9591 629.901 38.6982C629.899 37.0077 629.226 35.387 628.031 34.1918C626.835 32.9966 625.214 32.3246 623.523 32.3233V32.3233Z" fill="white"/>
</g>
</g>
<g style="mix-blend-mode:overlay">
<g style="mix-blend-mode:overlay">
<path d="M502.798 635.993C500.225 635.993 497.71 635.23 495.571 633.801C493.431 632.371 491.764 630.34 490.779 627.962C489.795 625.585 489.537 622.97 490.039 620.446C490.541 617.923 491.78 615.605 493.599 613.786C495.419 611.966 497.737 610.727 500.26 610.225C502.784 609.723 505.399 609.981 507.776 610.966C510.153 611.95 512.185 613.618 513.614 615.757C515.044 617.896 515.807 620.411 515.807 622.984C515.803 626.433 514.431 629.74 511.993 632.179C509.554 634.618 506.247 635.989 502.798 635.993ZM502.798 616.609C501.537 616.609 500.305 616.983 499.256 617.684C498.208 618.384 497.391 619.38 496.908 620.545C496.426 621.71 496.3 622.991 496.546 624.228C496.792 625.464 497.399 626.6 498.29 627.492C499.182 628.383 500.318 628.991 501.554 629.237C502.791 629.483 504.073 629.356 505.238 628.874C506.402 628.391 507.398 627.574 508.098 626.526C508.799 625.478 509.173 624.245 509.173 622.984C509.171 621.294 508.499 619.674 507.304 618.478C506.109 617.283 504.488 616.611 502.798 616.609Z" fill="white"/>
</g>
</g>
<g style="mix-blend-mode:overlay">
<g style="mix-blend-mode:overlay">
<path d="M642.91 245.341C640.337 245.341 637.822 244.578 635.682 243.149C633.543 241.72 631.875 239.688 630.89 237.311C629.906 234.934 629.648 232.318 630.15 229.794C630.652 227.271 631.891 224.953 633.71 223.133C635.529 221.314 637.847 220.074 640.371 219.572C642.894 219.07 645.51 219.328 647.887 220.312C650.265 221.297 652.296 222.964 653.726 225.104C655.156 227.243 655.919 229.758 655.919 232.331C655.915 235.78 654.544 239.087 652.105 241.526C649.666 243.965 646.359 245.337 642.91 245.341ZM642.91 225.956C641.649 225.956 640.416 226.33 639.368 227.031C638.319 227.731 637.502 228.727 637.019 229.892C636.537 231.057 636.41 232.339 636.656 233.575C636.902 234.812 637.51 235.948 638.401 236.84C639.293 237.732 640.429 238.339 641.666 238.585C642.902 238.831 644.184 238.704 645.349 238.222C646.514 237.739 647.51 236.922 648.211 235.873C648.911 234.825 649.285 233.592 649.285 232.331C649.283 230.641 648.611 229.021 647.416 227.826C646.22 226.631 644.6 225.958 642.91 225.956Z" fill="white"/>
</g>
</g>
<g style="mix-blend-mode:overlay">
<g style="mix-blend-mode:overlay">
<path d="M286.343 956.843C283.77 956.844 281.255 956.081 279.115 954.651C276.975 953.222 275.308 951.19 274.323 948.813C273.338 946.436 273.08 943.82 273.582 941.296C274.084 938.773 275.323 936.454 277.142 934.635C278.961 932.815 281.279 931.576 283.803 931.074C286.327 930.571 288.942 930.829 291.32 931.813C293.697 932.798 295.729 934.465 297.159 936.604C298.589 938.744 299.352 941.259 299.352 943.832C299.349 947.282 297.977 950.589 295.538 953.028C293.099 955.467 289.792 956.839 286.343 956.843ZM286.343 937.457C285.082 937.457 283.849 937.831 282.8 938.532C281.752 939.232 280.934 940.228 280.452 941.393C279.969 942.558 279.843 943.84 280.089 945.077C280.335 946.314 280.942 947.45 281.834 948.342C282.725 949.234 283.862 949.841 285.098 950.087C286.335 950.333 287.617 950.207 288.783 949.724C289.948 949.241 290.943 948.424 291.644 947.375C292.344 946.326 292.718 945.093 292.718 943.832C292.716 942.142 292.044 940.522 290.849 939.326C289.654 938.131 288.033 937.459 286.343 937.458V937.457Z" fill="white"/>
</g>
</g>
<g style="mix-blend-mode:overlay">
<g style="mix-blend-mode:overlay">
<path d="M1506.04 1507.04C1493.57 1507.02 1481.61 1502.06 1472.79 1493.24C1463.97 1484.43 1459.01 1472.47 1459 1460H1465.63C1465.63 1465.31 1466.67 1470.57 1468.7 1475.47C1470.73 1480.38 1473.7 1484.84 1477.45 1488.6C1481.2 1492.35 1485.66 1495.33 1490.57 1497.37C1495.47 1499.4 1500.73 1500.44 1506.04 1500.44C1511.35 1500.44 1516.6 1499.4 1521.51 1497.37C1526.41 1495.33 1530.87 1492.35 1534.62 1488.6C1538.37 1484.84 1541.35 1480.38 1543.38 1475.47C1545.4 1470.57 1546.44 1465.31 1546.44 1460H1553.07C1553.06 1472.47 1548.1 1484.43 1539.28 1493.24C1530.46 1502.06 1518.51 1507.02 1506.04 1507.04Z" fill="white"/>
</g>
</g>
<g style="mix-blend-mode:overlay">
<g style="mix-blend-mode:overlay">
<path d="M1402.66 495.387V490.965C1404.35 490.965 1406.01 490.633 1407.57 489.989C1409.13 489.344 1410.54 488.4 1411.73 487.209C1412.92 486.018 1413.86 484.604 1414.51 483.049C1415.15 481.493 1415.49 479.825 1415.49 478.141C1415.49 476.457 1415.15 474.79 1414.51 473.234C1413.86 471.678 1412.92 470.265 1411.73 469.074C1410.54 467.883 1409.13 466.939 1407.57 466.294C1406.01 465.65 1404.35 465.318 1402.66 465.318V460.896C1407.24 460.896 1411.62 462.712 1414.86 465.947C1418.09 469.181 1419.91 473.568 1419.91 478.141C1419.91 482.715 1418.09 487.102 1414.86 490.336C1411.62 493.57 1407.24 495.387 1402.66 495.387Z" fill="white"/>
</g>
</g>
<g style="mix-blend-mode:overlay">
<g style="mix-blend-mode:overlay">
<path d="M178.073 1230.08H171.439C171.444 1224.77 170.403 1219.51 168.375 1214.61C166.347 1209.7 163.372 1205.24 159.62 1201.49C155.868 1197.73 151.412 1194.75 146.507 1192.72C141.603 1190.68 136.346 1189.64 131.036 1189.64C125.727 1189.64 120.47 1190.68 115.565 1192.72C110.661 1194.75 106.205 1197.73 102.453 1201.49C98.7004 1205.24 95.7252 1209.7 93.6973 1214.61C91.6694 1219.51 90.6285 1224.77 90.634 1230.08H84C83.994 1223.9 85.2062 1217.78 87.5673 1212.07C89.9284 1206.36 93.3921 1201.17 97.7604 1196.79C102.129 1192.42 107.316 1188.95 113.026 1186.58C118.735 1184.22 124.856 1183 131.036 1183C137.217 1183 143.337 1184.22 149.047 1186.58C154.757 1188.95 159.944 1192.42 164.312 1196.79C168.68 1201.17 172.144 1206.36 174.505 1212.07C176.866 1217.78 178.079 1223.9 178.073 1230.08Z" fill="white"/>
</g>
</g>
<g style="mix-blend-mode:overlay">
<g style="mix-blend-mode:overlay">
<path d="M934.652 867.416H928.018C928.018 856.7 923.761 846.423 916.184 838.846C908.607 831.269 898.33 827.012 887.614 827.012C876.899 827.012 866.622 831.269 859.045 838.846C851.467 846.423 847.211 856.7 847.211 867.416H840.577C840.577 854.94 845.532 842.976 854.354 834.155C863.175 825.334 875.139 820.378 887.614 820.378C900.089 820.378 912.054 825.334 920.875 834.155C929.696 842.976 934.652 854.94 934.652 867.416Z" fill="white"/>
</g>
</g>
<g style="mix-blend-mode:overlay">
<g style="mix-blend-mode:overlay">
<path d="M530.758 817.617C524.572 817.617 518.525 815.783 513.382 812.346C508.238 808.91 504.229 804.025 501.862 798.31C499.495 792.595 498.876 786.306 500.082 780.239C501.289 774.172 504.268 768.599 508.642 764.225C513.016 759.851 518.589 756.872 524.656 755.666C530.723 754.459 537.012 755.078 542.727 757.445C548.442 759.813 553.326 763.821 556.763 768.965C560.2 774.108 562.034 780.155 562.034 786.341C562.025 794.633 558.726 802.583 552.863 808.446C547 814.31 539.05 817.608 530.758 817.617ZM530.758 761.699C525.884 761.699 521.12 763.144 517.067 765.852C513.015 768.559 509.856 772.408 507.991 776.911C506.126 781.414 505.638 786.368 506.589 791.148C507.54 795.929 509.887 800.319 513.333 803.766C516.779 807.212 521.17 809.559 525.95 810.51C530.73 811.461 535.685 810.973 540.188 809.107C544.691 807.242 548.539 804.084 551.247 800.032C553.955 795.979 555.4 791.215 555.4 786.341C555.393 779.808 552.794 773.544 548.174 768.924C543.555 764.305 537.291 761.706 530.758 761.699Z" fill="white"/>
</g>
</g>
<g style="mix-blend-mode:overlay">
<g style="mix-blend-mode:overlay">
<path d="M1471.21 338.796C1461.91 338.796 1452.82 336.037 1445.08 330.869C1437.35 325.7 1431.32 318.354 1427.76 309.759C1424.2 301.164 1423.26 291.707 1425.08 282.583C1426.89 273.458 1431.37 265.077 1437.95 258.499C1444.53 251.92 1452.91 247.44 1462.04 245.625C1471.16 243.81 1480.62 244.742 1489.21 248.302C1497.81 251.862 1505.15 257.891 1510.32 265.626C1515.49 273.361 1518.25 282.455 1518.25 291.758C1518.24 304.229 1513.28 316.185 1504.46 325.003C1495.64 333.821 1483.68 338.781 1471.21 338.796ZM1471.21 251.355C1463.22 251.355 1455.41 253.725 1448.77 258.164C1442.12 262.604 1436.94 268.914 1433.89 276.297C1430.83 283.679 1430.03 291.803 1431.59 299.641C1433.15 307.478 1436.99 314.677 1442.64 320.328C1448.29 325.978 1455.49 329.826 1463.33 331.385C1471.17 332.944 1479.29 332.144 1486.67 329.086C1494.06 326.028 1500.37 320.849 1504.81 314.205C1509.25 307.561 1511.62 299.749 1511.62 291.758C1511.6 281.046 1507.34 270.777 1499.77 263.203C1492.19 255.628 1481.92 251.368 1471.21 251.355Z" fill="white"/>
</g>
</g>
</svg>
